<svg xmlns="http://www.w3.org/2000/svg" viewBox="0 0 832.43 670.71"><defs><style>.cls-1{fill:#fff;}</style></defs><title>axe</title><g id="Layer_2" data-name="Layer 2"><g id="Layer_1-2" data-name="Layer 1"><path class="cls-1" d="M491.46,379.8c22.26-5,40.68-15.74,55.31-32.72a97.23,97.23,0,0,0,22.47-47,99.92,99.92,0,0,0-44.95-102.41l91.29-91.33c15,22.93,35.81,38.15,62.87,44.14S730.8,151.94,754,137s37.59-36.48,43.89-63.75c.67.9,1.15,1.5,1.58,2.14a193.54,193.54,0,0,1,27,61.12,207.62,207.62,0,0,1,5.91,52.77c-.37,38.9-10.73,75-30.16,108.54Q766,360.36,700.82,392.13a219.45,219.45,0,0,1-66.52,20.19,212.58,212.58,0,0,1-56.93.29,198.39,198.39,0,0,1-58.5-17A187.22,187.22,0,0,1,493,381C492.64,380.72,492.28,380.42,491.46,379.8Z"/><path class="cls-1" d="M302.23,317.85c-1.19-1.09-2.47-2.17-3.65-3.36-1.9-1.92-1.93-3-.1-4.88q13.47-13.51,27-27c1.77-1.76,2.94-1.76,4.7,0,1.24,1.23,2.39,2.57,3.64,3.92,7.37-6.1,14.67-6.39,22.31-.72.58-.55,1.23-1.11,1.83-1.72l91.31-91.28Q523.59,118.49,598,44.23a9.39,9.39,0,0,0,3.21-6.68c.56-10.3,1.39-20.59,2.12-30.88,0-.55.09-1.1.17-2L670.91,0l-4.71,67.4c-2.6.21-5.05.44-7.51.61Q644.58,69,630.46,70A2.82,2.82,0,0,0,628,71.13a17.46,17.46,0,0,1-2.11,2.29Q506.26,193,386.6,312.66a18.35,18.35,0,0,1-2,1.51c6,7.81,6,15.25-.15,22.68,1.26,1.26,2.5,2.49,3.71,3.75,1.79,1.86,1.79,3-.06,4.9q-13.39,13.42-26.81,26.81c-1.85,1.84-3,1.85-4.89,0-1.24-1.23-2.35-2.6-3.42-3.8L88.54,633.13c1.11,1,2.43,2.2,3.66,3.45,1.77,1.8,1.81,3,.07,4.71q-13.55,13.6-27.15,27.15c-1.62,1.62-2.9,1.59-4.54,0-1.26-1.22-2.44-2.52-3.86-4-.7.65-1.26,1.16-1.81,1.69a15.56,15.56,0,0,1-22.05,0C23.38,656.84,14.06,647.39,4.66,638a15.43,15.43,0,0,1-.25-21.84l2-2.08c-1.4-1.33-2.7-2.51-3.93-3.75-1.72-1.74-1.77-3-.07-4.72Q16,592,29.56,578.47c1.64-1.63,2.86-1.58,4.55,0,1.32,1.26,2.61,2.56,3.86,3.78Z"/></g></g></svg>