<svg xmlns="http://www.w3.org/2000/svg" viewBox="0 0 829.69 829.54"><defs><style>.cls-1{fill:#fff;}</style></defs><title>bow</title><g id="Layer_2" data-name="Layer 2"><g id="Layer_1-2" data-name="Layer 1"><path class="cls-1" d="M3.92,829.54c-.7-3.34-1.47-6.67-2.08-10A110.8,110.8,0,0,1,.67,787.24a102.4,102.4,0,0,1,14.76-42.73c8.41-13.67,19.38-25,32.11-34.64A177.43,177.43,0,0,1,79.82,690.6a12.6,12.6,0,0,0,3.42-2.54Q127.39,644,171.5,599.84,429.29,342.07,687.09,84.32a22.34,22.34,0,0,0,4.52-6.38c8.34-17.65,19.07-33.65,33.22-47.21C740.16,16.05,758,6.06,778.94,2,795.06-1.2,811.09-.39,827,3.34a7.36,7.36,0,0,1,2.67,1.1c-1.68.16-3.37.29-5.05.47-21.15,2.25-39.74,10.52-56.1,24-14.74,12.1-26,27-35.13,43.66-10.68,19.52-17.6,40.4-22.42,62.06-1.9,8.54-2.6,17.23-3.71,25.87a459.38,459.38,0,0,1-9,48.57,603.94,603.94,0,0,1-21.6,70.59,798.84,798.84,0,0,1-38.45,86.79,920.48,920.48,0,0,1-54.79,92.39c-.58.86-1.18,1.7-1.67,2.42l-28.49-28.63a11,11,0,0,1,.63-1.11q20.53-30.89,38.56-63.3a806.62,806.62,0,0,0,49.85-107.12,604.37,604.37,0,0,0,24.23-79.81,421.8,421.8,0,0,0,8.95-54.4c.56-6.11,2.38-11.9,4.11-17.72,1.12-3.75,2.43-7.45,3.64-11.17a2.19,2.19,0,0,0,0-1.61l-587,587,.14.31c.55-.14,1.1-.26,1.63-.42,6.65-2,13.24-4.27,20-6.09a71.38,71.38,0,0,1,11.09-1.84,468.22,468.22,0,0,0,65.31-11.92,663.68,663.68,0,0,0,99.88-34.48,834.28,834.28,0,0,0,79-39.28q29.49-16.61,57.67-35.34c.66-.44,1.34-.83,1.86-1.15l28.52,28.57c-.53.38-1.21.88-1.92,1.36q-27.85,18.79-57,35.57a844.24,844.24,0,0,1-77.54,39.53,698.55,698.55,0,0,1-87.59,32.58,495.11,495.11,0,0,1-76.18,16.4c-5.79.74-11.65,1.07-17.38,2.09-29.8,5.34-58.07,14.85-83.58,31.56-14.87,9.74-27.76,21.58-37.78,36.37A104.11,104.11,0,0,0,5,823.44c-.13,1-.16,2.07-.26,3.11s-.21,1.9-.32,2.85Z"/><path class="cls-1" d="M470.37,578.32a8.5,8.5,0,0,1-6.05-2.47c-8-8-16.1-16-24.06-24.09a8.61,8.61,0,0,1,0-12.3c.65-.7,1.35-1.36,2-2l96-96c.17-.17.35-.33.51-.51,3.3-3.88,9.34-4.73,13.89,0,5.52,5.78,11.27,11.34,16.92,17,1.87,1.87,3.74,3.72,5.6,5.59,4.32,4.37,4.35,9.34,0,13.69q-26.27,26.3-52.58,52.58-22.56,22.56-45.1,45.13C475.51,576.94,473.32,578.38,470.37,578.32Z"/><path class="cls-1" d="M374.45,80.91c-.06.88,0,1.26-.11,1.62-2.94,16.2-5.92,32.4-8.81,48.62a3.45,3.45,0,0,1-2.12,2.85c-5.47,2.64-10.87,5.43-16.35,8.05a8,8,0,0,0-3.84,3.7q-69,130.25-138,260.45L134.08,540.32c-.34.64-.65,1.29-1,1.89a2.7,2.7,0,0,1-4.79-2.48c.73-1.6,1.6-3.13,2.42-4.68L268.85,274.4q34.6-65.27,69.25-130.51a10.26,10.26,0,0,0,1.15-6.85c-.93-5.84-1.57-11.73-2.48-17.58-.23-1.49.51-2.21,1.38-3.05l30.52-29.87Z"/><path class="cls-1" d="M521.88,62.61c-1.64,5-3.08,9.34-4.54,13.72-3.82,11.45-7.67,22.89-11.42,34.37a4.08,4.08,0,0,1-3,2.95c-5.88,1.83-11.69,3.85-17.56,5.71a7,7,0,0,0-3.76,2.73q-40,55-80.15,109.92L228.09,469.64l-10.18,14a14.14,14.14,0,0,1-1,1.34,2.65,2.65,0,0,1-3.65.55,2.74,2.74,0,0,1-.65-3.83c.36-.62.81-1.19,1.24-1.77q26.38-36.14,52.75-72.29L391.85,235.86q42.77-58.63,85.57-117.25a7,7,0,0,0,1.44-4.41c0-6.16.13-12.32.16-18.48a3.28,3.28,0,0,1,1.44-3q20.08-14.61,40.09-29.32C520.79,63.22,521.07,63.08,521.88,62.61Z"/><path class="cls-1" d="M97.11,556.64c.52-1.07.83-1.77,1.19-2.45q11-20.77,22-41.54a8.35,8.35,0,0,1,2.8-3.17c8.29-5.58,16.53-11.23,24.79-16.85a3.69,3.69,0,0,1,1.66-.73c-.23.54-.43,1.11-.7,1.63q-11.28,21.3-22.61,42.57a6.16,6.16,0,0,1-1.82,2.14q-13,9-26.14,17.85A11.16,11.16,0,0,1,97.11,556.64Z"/><path class="cls-1" d="M250.95,444.85c-.45,3.22-.88,6.44-1.34,9.66-1.07,7.35-2.13,14.7-3.27,22a6.72,6.72,0,0,1-1.12,2.82q-14.34,19.8-28.77,39.53c-.19.25-.41.48-.86,1a15.88,15.88,0,0,1,0-2q2.19-15.29,4.44-30.58a5.12,5.12,0,0,1,.91-2.16q14.43-19.88,28.92-39.72c.22-.31.42-.63.63-.94Z"/><path class="cls-1" d="M160.89,498c0,.6.11,1.21.11,1.81,0,10,0,20-.06,30a7.18,7.18,0,0,1-.76,3.18Q149,554.23,137.69,575.49c-.22.42-.48.81-1,1.61a14.13,14.13,0,0,1-.28-1.79c0-10.23,0-20.45.06-30.68a6.66,6.66,0,0,1,.72-3q11.32-21.52,22.73-43c.15-.28.35-.53.52-.79Z"/><path class="cls-1" d="M180.07,493.36c1.4-1.94,2.79-3.88,4.2-5.81q12.3-16.84,24.58-33.69a9.76,9.76,0,0,1,3.8-3.14c8.69-4.22,17.35-8.51,26-12.77.61-.3,1.26-.54,2.36-1-.6.94-.9,1.46-1.25,1.95q-14.06,19.26-28.15,38.5a7.73,7.73,0,0,1-2.65,2.28c-8.93,4.46-17.9,8.84-26.87,13.23-.6.29-1.24.51-1.86.77Z"/></g></g></svg>