<svg xmlns="http://www.w3.org/2000/svg" viewBox="0 0 814.25 812.46"><defs><style>.cls-1{fill:#fff;}</style></defs><title>crossbow</title><g id="Layer_2" data-name="Layer 2"><g id="Layer_1-2" data-name="Layer 1"><path class="cls-1" d="M305,458.76l-9.76-9.47c.75-.78,1.33-1.42,1.93-2q17.73-17.74,35.5-35.44a4.94,4.94,0,0,0,1.59-4.21q-1.64-28.75-3.15-57.5c-.72-13.42-1.39-26.84-2.11-40.26q-1.32-24.8-2.67-49.6-1.05-19.65-2.08-39.3-1.36-25.52-2.74-51-.82-15.34-1.6-30.67c-.69-13.18-1.42-26.36-2-39.54A3.7,3.7,0,0,0,315.28,96,58.11,58.11,0,0,1,301,87.25c-10.26-8.64-15.71-19.77-17.1-33-1.22-11.58.64-22.84,4.11-33.82,1.95-6.16,4.52-12.12,6.83-18.16A7.44,7.44,0,0,1,296.22,0c-.35,2.64-.78,5.28-1,7.93A63.54,63.54,0,0,0,296.83,31c3.39,12.21,10.6,21.53,21.26,28.27,9.15,5.78,19.24,9,29.83,10.7a149.61,149.61,0,0,0,42.32.77c8.73-1,17.42-2.44,26.16-3.4a307.87,307.87,0,0,1,39.78-1.44,396.43,396.43,0,0,1,168.3,42c.69.35,1.35.75,2.31,1.28L597,139.69c-.78-.34-1.57-.66-2.34-1a395.06,395.06,0,0,0-97.31-32.59,381.23,381.23,0,0,0-79.91-7.25,339.87,339.87,0,0,0-51.56,4.72c-5.9,1-11.81.49-17.71.1a105.5,105.5,0,0,1-24.27-4.36,10.44,10.44,0,0,0-1.48-.19l16.29,306.1a14.19,14.19,0,0,0,1.42-.95c.54-.47,1-1,1.54-1.52Q485.37,259.07,629,115.38a9.29,9.29,0,0,1,5.79-2.82c16.9-2.15,33.78-4.39,50.67-6.6,1.1-.14,2.21-.24,3.27-.36a2.24,2.24,0,0,1,.13.36.41.41,0,0,1,0,.21.79.79,0,0,1-.14.19l-.5.52L378.65,416.43a.6.6,0,0,0-.13.2,4.86,4.86,0,0,0-.1.57l10.75-3.68.15.31c-.49.52-1,1.06-1.46,1.56q-17.64,17.66-35.27,35.33a9,9,0,0,1-3.8,2.36c-2.43.76-4.8,1.67-7.36,2.58.13,2.2.2,4.27.4,6.32a3,3,0,0,0,.82,1.65c1.82,1.91,3.7,3.77,5.6,5.6a2.61,2.61,0,0,0,1.42.77c2.14.17,4.28.22,6.55.32,1-2.87,1.91-5.59,2.94-8.26a7.63,7.63,0,0,1,1.58-2.61q18-18.14,36.08-36.22a2.42,2.42,0,0,1,1.44-.76l-3.61,10.7.42.3,311-311a18.76,18.76,0,0,1,0,2q-2.3,17.72-4.63,35.44c-.82,6.26-1.65,12.53-2.44,18.79a4.22,4.22,0,0,1-1.41,2.93c-.61.51-1.14,1.12-1.7,1.69L408.61,470.57a7.59,7.59,0,0,0-1.83,2.5L715,489.48c-.62-2.62-1.19-4.92-1.7-7.23a129.78,129.78,0,0,1-2.9-29.07c0-3.73.87-7.45,1.35-11.18a361.08,361.08,0,0,0,2.9-59.61c-.46-12.8-1.46-25.55-3.12-38.25a409,409,0,0,0-10.75-53.83A404.47,404.47,0,0,0,673.2,217c-.31-.64-.59-1.3-.94-2.09L702,184.43c.52.92.93,1.58,1.28,2.27a407.63,407.63,0,0,1,36.08,104.91A393.69,393.69,0,0,1,747,377.48a402,402,0,0,1-4,45.39,142.67,142.67,0,0,0-.95,18.67,125.8,125.8,0,0,0,4.5,35.35,69,69,0,0,0,11.71,24c8.62,11,20,16.89,33.85,18.22A71.89,71.89,0,0,0,812.48,518c.43-.08.86-.12,1.77-.23a11.48,11.48,0,0,1-1.15.81c-11.57,5.6-23.53,10.06-36.33,11.87-9.54,1.35-19,1.1-28.21-2.05-11.08-3.78-19.43-11-25.41-20.88-2.22-3.68-3.88-7.69-5.79-11.56-.25-.5-.48-1-.79-1.63-3.16-.19-6.34-.4-9.53-.57l-61.58-3.28q-29.35-1.55-58.71-3.09-29.11-1.55-58.23-3.14-24.8-1.32-49.6-2.6-29.11-1.55-58.23-3.13c-5.83-.31-11.67-.55-17.49-1-1.46-.1-2.2.66-3,1.51q-15.61,15.62-31.22,31.24c-2,2-3.95,4.16-6.11,6.45l-9.16-9.12a15.51,15.51,0,0,0-1.36,1C313.16,544.72,276.22,583,242.63,624.34c-5,6.21-9.9,12.57-14.86,18.84a4.17,4.17,0,0,0-1.12,3.24,17.56,17.56,0,0,1-4.71,13.87q-20.09,22.76-40.1,45.58l-68.27,77.61c-5.55,6.31-11.07,12.64-16.65,18.91A28.65,28.65,0,0,1,80,812.15a19.61,19.61,0,0,1-11.94-1.55,7.46,7.46,0,0,1-3.29-3A179.55,179.55,0,0,0,21.39,759c-5.35-4.17-11.08-7.87-16.73-11.64a8,8,0,0,1-3.17-3.75A21,21,0,0,1,1.12,729a29.52,29.52,0,0,1,9.05-13.61q42.15-37.1,84.33-74.18,28.47-25,56.92-50.11c4.32-3.83,9.07-5.93,14.85-5.29a4,4,0,0,0,3-1.16c16.61-12.66,32.68-26,48.35-39.8a1164.31,1164.31,0,0,0,86.08-84.55C304.06,459.92,304.4,459.48,305,458.76Z"/><path class="cls-1" d="M741.91,69.4c-3.35,6.16-6.47,11.92-9.61,17.67-5.29,9.69-10.61,19.35-15.85,29.06a3.78,3.78,0,0,1-2.89,2.13c-6.2,1.21-12.37,2.57-18.57,3.74a8.18,8.18,0,0,0-4.52,2.41q-82,82.24-164.07,164.42Q442.47,372.9,358.53,456.94c-.51.51-1,1-1.53,1.52-1.5,1.39-3.13,1.55-4.24.43s-.9-2.67.55-4.23c.43-.47.9-.91,1.35-1.36l307.56-308q12.38-12.4,24.75-24.79a7.14,7.14,0,0,0,2.09-3.91c1.22-6.36,2.56-12.69,3.82-19a3.39,3.39,0,0,1,1.82-2.59q23.07-12.56,46.11-25.19A8.47,8.47,0,0,1,741.91,69.4Z"/></g></g></svg>