<svg xmlns="http://www.w3.org/2000/svg" viewBox="0 0 414.45 453.37"><defs><style>.cls-1{fill:#fff;}</style></defs><title>dagger</title><g id="Layer_2" data-name="Layer 2"><g id="Layer_1-2" data-name="Layer 1"><path class="cls-1" d="M414.36.38a28.72,28.72,0,0,1-.26,6.75A82.46,82.46,0,0,1,408.89,25c-6.13,15.48-14.19,30-22.74,44.23-12.67,21.13-26.71,41.32-41.41,61.07q-23.76,31.91-49.83,62C275.32,215,255,236.95,233.41,257.75c-8.56,8.25-17.46,16.14-26.25,24.15a7.25,7.25,0,0,1-2.91,1.6A93.16,93.16,0,0,0,176.77,297c-2,1.41-4.1,2.77-6.25,4.21.48.5.9,1,1.34,1.41,2.38,2.39,4.79,4.75,7.14,7.16,2.1,2.15,2.1,4.59,0,6.73q-5.56,5.63-11.2,11.19c-2.15,2.11-4.52,2.07-6.71-.06-1.86-1.82-3.69-3.67-5.6-5.58-.55.52-1,.93-1.46,1.37Q103.42,374,52.83,424.57A7,7,0,0,0,51,427.8c-.95,3.7-2,7.36-2.93,11.07a2.63,2.63,0,0,1-2.2,2.19q-20.64,5.49-41.25,11.07L0,453.37c.15-.79.23-1.33.37-1.86,3.93-14.61,7.88-29.2,11.76-43.82a3.06,3.06,0,0,1,2.55-2.56c3.49-.82,6.92-1.86,10.39-2.75a6.86,6.86,0,0,0,3.18-1.79Q53.11,375.68,78,350.82l51.52-51.52c.49-.49,1-1,1.56-1.6l-4.38-4.38c-.49-.49-1-1-1.48-1.49a4.27,4.27,0,0,1,0-6.31c1.89-2,3.86-3.88,5.79-5.81,1.66-1.66,3.42-3.25,5-5,2.6-3,5.67-2.54,7.86-.07,1.77,2,3.75,3.8,5.64,5.69.4.4.83.77,1.35,1.25.34-.68.64-1.23.89-1.8a175.42,175.42,0,0,0,12.37-38.4c.44-2.31.82-4.63,1.11-7a3.86,3.86,0,0,1,1.77-2.92c10.19-7.28,20.43-14.5,30.47-22,14.9-11.09,29.3-22.81,43.5-34.79q24.94-21,48.72-43.39C297.55,124,305.34,116.57,313,109c12.26-12.2,24.49-24.44,36.5-36.89q30.41-31.52,58.68-65c1.73-2,3.48-4.05,5.19-6.1a4.37,4.37,0,0,0,.48-1Z"/><path class="cls-1" d="M356.48,120.15C374.4,95,391.14,69.66,405.19,42.5c-.21.95-.36,1.91-.64,2.84-1.28,4.32-2.79,8.59-3.85,13-1.8,7.43-3.12,15-4.81,22.44-.48,2.13-.94,4.27-1.29,6.42-.75,4.58-1.44,9.17-1.95,13.79-.66,6-.16,11.94.44,17.89.48,4.74.89,9.49,1.37,14.23.21,2.09.57,4.16.77,6.24a80.93,80.93,0,0,1-.79,23.92,31.27,31.27,0,0,1-1.81,5.4,3.46,3.46,0,0,1-2.9,2.19,3,3,0,0,1-3.57-1.85,19.59,19.59,0,0,1-2.23-8.77,82.27,82.27,0,0,1,1.17-13.08,47.12,47.12,0,0,0,.87-7.93c-.25-4.54,0-5.7-.95-8.55s-.95-1.9-1.9-3.8-3.51-1.42-3.8-1.9c-1.35.31-1.78,2.77-1.9,3.8a23,23,0,0,0-.47,3c0,1.36,0,2.72.1,4.08a9.69,9.69,0,0,1-1.26,5.1c-.72,1.38-1.3,1.42-2.21.22s-1.86-2.24-1.85-3.89c0-2.67.16-5.65,0-8.32-.11-1.94-1-6.88-2.85-9.73-4.55-1.15-4.94-2.46-9.22-.14A5.89,5.89,0,0,1,356.48,120.15Z"/></g></g></svg>