<svg xmlns="http://www.w3.org/2000/svg" viewBox="0 0 696.96 808.44"><defs><style>.cls-1{fill:#fff;}</style></defs><title>Asset 1</title><g id="Layer_2" data-name="Layer 2"><g id="Layer_1-2" data-name="Layer 1"><path class="cls-1" d="M0,684.48q0-2.16,0-4.32a5.34,5.34,0,0,0,1-1c7.19-12.65,14.34-25.33,21.56-38,2.89-5.06,7.5-6.23,12.64-3.34,3.35,1.88,6.68,3.79,10,5.67.61.35,1.26.64,2.13,1.07L357.42,98.51c-1.06-.64-1.86-1.14-2.68-1.61-3.13-1.78-6.29-3.5-9.38-5.34A11.32,11.32,0,0,1,342.21,89c-2.45-3.13-2.34-6.44-.39-9.84,7-12.15,13.84-24.33,20.8-36.47,2.79-4.87,7.37-6.11,12.25-3.4,4.4,2.45,8.82,4.88,13.13,7.48a4,4,0,0,0,4.4.1,28.3,28.3,0,0,1,17.92-2.83,31.49,31.49,0,0,1,10.73,4c1.22.7,2.46,1.37,3.82,2.12,2.79-4.92,5.44-9.56,8-14.24a3.27,3.27,0,0,0,.17-1.82c-.2-1.75-.63-3.47-.7-5.22A27.51,27.51,0,0,1,453.51.77C454.35.56,455.17.26,456,0h7.68a4.2,4.2,0,0,0,.87.39,28.13,28.13,0,0,1,19,13,3.58,3.58,0,0,0,2.08,1.38,65.29,65.29,0,0,1,34.84,20.36c6,6.55,10.35,14,11.86,22.9A3.11,3.11,0,0,0,534,60.31c1.49.94,3,1.88,4.37,3a63.1,63.1,0,0,1,20.92,29.82c3.59,10.34,4.77,20.86,1.66,31.57a2.55,2.55,0,0,0,.32,2.26,55.41,55.41,0,0,1,8.09,25.59c1,13.42-1.27,26.12-8.39,37.75-.2.33-.36.7-.43.84,11.84,21.39,12.18,42.75,1.29,64.18q16.38,32.56-1.29,64.24c11.3,17.36,12.51,44.79,1.06,63.95,5.86,9.83,8.2,20.66,8,32.07s-3,22.13-9.14,31.72c1.4,2.71,2.88,5.19,4,7.82a63.57,63.57,0,0,1,3.67,39.24c-2.49,11.58-7.41,21.78-17.81,28.5a2,2,0,0,0-.74,1.37c-.1,1.42,0,2.84,0,4.28a13.93,13.93,0,0,0,1.61.42,106.41,106.41,0,0,1,26,6.58,6.12,6.12,0,0,0,6-.55c12.3-7.16,24.67-14.2,37-21.28.65-.37,1.35-.67,2.24-1.12.06,1.05.12,1.75.12,2.45,0,16.24,0,32.48,0,48.71a5.24,5.24,0,0,0,1.41,3.84,117.21,117.21,0,0,1,26.66,50.37A4.48,4.48,0,0,0,652.8,621c11.18,6.37,22.33,12.82,33.5,19.21,3.52,2,7.1,3.94,10.66,5.9v.48a7.79,7.79,0,0,0-.85.37Q674.57,659.27,653,671.6a4.71,4.71,0,0,0-2.45,3.28,113.48,113.48,0,0,1-15.2,35.55,4.79,4.79,0,0,0-.73,3.84q4.49,22.09,8.9,44.19c.4,2,.73,4,1.14,6.34-1.12-.34-1.88-.55-2.62-.8-14.46-4.88-28.93-9.75-43.37-14.69a4.91,4.91,0,0,0-4.5.46,114.34,114.34,0,0,1-30.6,12.29,5.19,5.19,0,0,0-3.65,2.67c-7.86,13.84-15.81,27.62-23.74,41.42-.38.67-.81,1.32-1.41,2.29-.6-1-1.06-1.73-1.49-2.47q-12-20.8-23.87-41.62a4.45,4.45,0,0,0-3.06-2.36,114.22,114.22,0,0,1-28.7-11.28,4.54,4.54,0,0,0-4.06-.37q-21.09,7.22-42.23,14.3c-.71.24-1.46.39-2.37.64.1-.77.14-1.24.23-1.7,3-15.05,6-30.11,9-45.15a4.62,4.62,0,0,0-.79-4,115.08,115.08,0,0,1-17.61-38.62,6.21,6.21,0,0,0-3.33-4.28q-21-11.92-41.83-24c-.6-.34-1.15-.75-2-1.28,1-.6,1.74-1.07,2.49-1.5q21.12-12.12,42.25-24.22a4.44,4.44,0,0,0,2.33-3,117.49,117.49,0,0,1,30.44-54.13,4.86,4.86,0,0,0,1.58-3.76c-.08-16.24,0-32.48,0-48.71,0-.76.09-1.51.15-2.61l3.62,2.06q19.87,11.4,39.73,22.81a3.25,3.25,0,0,0,2.91.42,113.26,113.26,0,0,1,22.67-5c2-.23,3.94-.42,6.18-.65,0-1.42,0-2.68,0-3.94a2,2,0,0,0-1.08-2c-6.62-4.41-11-10.63-14-17.83a63.48,63.48,0,0,1-4.67-31.45,56.84,56.84,0,0,1,7.89-24.68,2.13,2.13,0,0,0,.23-.57c-11.5-21.62-11.23-42.9,0-64.17-11.24-21.35-11.51-42.71,0-64.28a7.22,7.22,0,0,0-.34-.68c-5.54-9-7.89-19-8.1-29.49-.23-11.49,2.09-22.41,8-32.41a2.07,2.07,0,0,0,0-2.42,56.9,56.9,0,0,1-7.77-25c-1.12-13.08,1-25.5,7.79-36.92a4.8,4.8,0,0,0,.33-.69c-1.75-3.87-3.67-7.33-4.9-11a64.14,64.14,0,0,1,2-47.27c1-2.27,1-2.26-.75-4.05A63.2,63.2,0,0,1,502,116.39c-.3-.51-.69-1-1-1.41a29.51,29.51,0,0,1-1.7,4.79q-10.48,18.6-21.12,37.11c-2.57,4.47-7.22,5.72-11.75,3.28-3-1.63-6-3.38-9-5.07-.68-.38-1.39-.71-2.3-1.18L145.09,700c.88.54,1.54,1,2.23,1.36,2.92,1.66,5.87,3.27,8.75,5,4.53,2.7,5.74,7.1,3.33,11.73-.22.43-.46.84-.7,1.26L143,746.85c-1.62,2.85-3.19,5.73-4.88,8.54-2.61,4.34-7.12,5.54-11.6,3.2-.57-.3-1.11-.63-1.67-.95l-11.28-6.35c-.56.35-1,.64-1.5.94-10.09,6.52-20.58,7.22-31.1,1.41q-23.51-13-46.73-26.51c-10.32-6-15.15-15.25-14.9-27.13a2.84,2.84,0,0,0-1.65-3c-4.08-2.21-8.07-4.57-12.13-6.82A10.08,10.08,0,0,1,1,685.47C.78,685.08.33,684.81,0,684.48ZM528.7,307c3.12-.48,6.17-1.35,9.21-1.32s6.23.93,9.38,1.45c6.37-10,6.68-30,1-39.21-8.69,2.62-8.69,2.62-19.52-.08C522.73,277.63,522.67,297.47,528.7,307ZM529,203.23c-6.36,9.24-6.33,30.18-.09,39.71a21.88,21.88,0,0,1,19.33-.13c5.89-8.75,5-33.06-1.42-39.65A22.51,22.51,0,0,1,529,203.23ZM548.35,370.9c5.77-10.29,4.86-32.9-1.19-39.34-3.24.53-6.29,1.42-9.34,1.43s-6.07-.87-9.16-1.37c-6.24,10.23-5.7,30.07.23,39.41A22,22,0,0,1,548.35,370.9ZM528.6,435.65a22,22,0,0,1,18.34-.08c6.18-8.9,7.52-29,1.31-39.72-6.49,3-13.07,2.8-19.77-.27C522.84,409,522.68,422.1,528.6,435.65Zm20-295.42c-3.33,1.41-6.64,2.5-10.12,2.2s-6.89-1-10.35-1.55c-5.69,10.6-5,29.85.86,38.41a22.56,22.56,0,0,1,18,.15C552.62,171.26,554.71,152.38,548.61,140.23ZM529,459.3c-6.83,10.25-5.94,31.92.24,40.23a11.45,11.45,0,0,1,9.38-4.49c3.83.11,6.75,2.1,9.12,5,6.36-9.75,5.75-34.23-1-40.81A21.68,21.68,0,0,1,529,459.3ZM510.66,86.41c-.61,10.74,7.69,26.5,14.05,31a26.82,26.82,0,0,1,9.7-4.35,26.14,26.14,0,0,1,10.8.41c1.35-13.79-9.41-31.7-17.26-36C523.48,82.77,517.5,85.35,510.66,86.41ZM472.4,52.22c3.72,6,16.81,14.86,24.55,15.77,3.44-6.69,8.82-11.08,16.35-12.59-3.39-9.53-17.53-20.08-26.39-22.06A28.52,28.52,0,0,1,472.4,52.22ZM461.33,70.85c2,1.16,3.9,2.19,5.72,3.3,8.88,5.43,13.78,13.33,14.53,23.72a3.21,3.21,0,0,0,1.89,3c3.93,2.14,7.8,4.38,11.7,6.58l3.28,1.89a65.23,65.23,0,0,1-5.38-24.16A68.89,68.89,0,0,1,463,67.91Z"/></g></g></svg>