<svg xmlns="http://www.w3.org/2000/svg" viewBox="0 0 813.33 813.91"><defs><style>.cls-1{fill:#fff;}</style></defs><title>hammer</title><g id="Layer_2" data-name="Layer 2"><g id="Layer_1-2" data-name="Layer 1"><path class="cls-1" d="M813.33,298.56l-46.81,46.83c-8.54,8.54-17.1,17.06-25.6,25.64a4.54,4.54,0,0,1-3.56,1.49q-61.8-.13-123.6-.14a5.67,5.67,0,0,1-4.37-1.88q-31.61-31.69-63.27-63.32a15.2,15.2,0,0,1-1.44-1.91l-145.94,146c.14.19.52.68.91,1.17a17.13,17.13,0,0,1-1.09,23c-3,3.11-6.1,6.12-9.15,9.18-.5.5-1,1-1.62,1.73,1.64,1.65,3.21,3.21,4.77,4.79,2.3,2.33,2.3,3.45-.07,5.82Q379.26,510.14,366,523.37c-2.27,2.26-3.49,2.23-5.83-.09-1.42-1.41-2.84-2.82-4.26-4.22-.11-.1-.27-.14-.19-.1L106.15,768.61l3.78,3.87a18,18,0,0,1,1.63,1.75,2.78,2.78,0,0,1,0,3.55,14.2,14.2,0,0,1-1.32,1.39L84.07,805.3c-2.32,2.32-3.52,2.32-5.83.05-1.48-1.46-3-2.92-4.45-4.37a3.08,3.08,0,0,0-.69-.3c-2.67,2.72-5.35,5.57-8.16,8.29a17.15,17.15,0,0,1-22.78,1.15,22.8,22.8,0,0,1-1.94-1.79c-11.54-11.53-23-23.18-34.66-34.57-7.17-7-7.66-18.43,0-25.63,2.61-2.45,5.08-5.06,8-7.94-1.8-1.64-3.51-3.09-5.1-4.67-2-2-2-3.25,0-5.29q13.48-13.5,27-27c2-2,3.27-1.93,5.3.08,1.53,1.52,3,3.12,4.7,4.93L295.32,458.43c-1.65-1.66-3.17-3.17-4.67-4.69-2.19-2.22-2.2-3.46,0-5.66q13.31-13.33,26.64-26.64c2.19-2.18,3.43-2.16,5.65,0l4.68,4.62,6.25-6.22c1.36-1.36,2.71-2.72,4.07-4.07,7-6.9,16.5-7.34,24-1.13l.78.62,145.67-145.7c-.44-.46-1.06-1.14-1.71-1.8q-31.31-31.31-62.66-62.58a7.44,7.44,0,0,1-2.37-5.86q.1-61.32,0-122.64a5.64,5.64,0,0,1,1.77-4.41Q479,36.91,514.41,1.41c.45-.45.87-.94,1.31-1.41h105.6c.95.11,1.89.29,2.84.31,5.76.09,11.51.2,17.27.15a5.32,5.32,0,0,1,4.17,1.76q30.23,30.33,60.54,60.58c.67.67,1.35,1.32,2.08,2a30.85,30.85,0,0,1,18.15-3.72,28,28,0,0,1,16.78,7.54c11.2,10.82,12.57,23.43,6.06,37.7.9.75,2,1.49,2.85,2.39q30.64,30.57,61.26,61.18Z"/></g></g></svg>