<svg id="Layer_1" data-name="Layer 1" xmlns="http://www.w3.org/2000/svg" viewBox="0 0 665.04 665.04"><defs><style>.cls-1{fill:#fff;}</style></defs><title>pb_logo</title><path class="cls-1" d="M500.52,177.48a22.44,22.44,0,0,1-1.49,1.83Q339.27,339.09,179.49,498.84c-.62.62-1.34,1.12-2,1.68" transform="translate(-168 -168)"/><path d="M833,501c-.85.89-1.68,1.81-2.55,2.68l-326.93,327c-.74.74-1.37,1.6-2,2.4h-1c-.56-.6-1.09-1.22-1.67-1.8Q334.76,667.15,170.66,503.07A25.72,25.72,0,0,0,168,501v-.49c.69-.57,1.44-1.09,2.07-1.73Q334.54,334.35,499,169.88a23.1,23.1,0,0,0,1.53-1.88H501c.73.78,1.45,1.57,2.2,2.33L830.38,497.5c.86.86,1.77,1.69,2.66,2.53ZM501,182.89,183.1,500.82,500.71,818.44,818.65,500.51Z" transform="translate(-168 -168)"/><path d="M636.57,602.39,738.07,500.87,636.56,399.35l-95.28,95.28L507.63,461,637.16,331.64c.29.27.92.82,1.52,1.41l33.75,33.79Q721.56,416,770.7,465.09q16.89,16.87,33.89,33.63c.62.61,1.36,1.11,2.29,1.85L636.82,670.52Q569,602.59,501.24,534.72T365.84,399.31L264,501.19c89.93,90.58,180.72,180.64,271,271L501,806.11,195.67,500.89,365.35,331.32Z" transform="translate(-168 -168)"/><path d="M371.62,597.13l90-90c1.17.66,31.33,30.6,33.28,33.12l-90.09,90.1Z" transform="translate(-168 -168)"/></svg>