<?xml version="1.0" encoding="utf-8"?>
<!-- Generator: Adobe Illustrator 21.1.0, SVG Export Plug-In . SVG Version: 6.00 Build 0)  -->
<svg version="1.1" id="Layer_1" xmlns="http://www.w3.org/2000/svg" xmlns:xlink="http://www.w3.org/1999/xlink" x="0px" y="0px"
	 viewBox="0 0 500 500" style="enable-background:new 0 0 500 500;" xml:space="preserve">
<style type="text/css">
	.st0{fill:#FFFFFF;}
</style>
<g>
	<path class="st0" d="M53.2,277.1c1.6-10.3,2.8-20.7,5-30.9c5.3-24.3,15.2-46.7,29.2-67.2c0.7-1.1,1.6-2.1,2.1-2.7
		c11.8,11.8,23.5,23.5,35.2,35.2c-41,67-22.3,147.9,30.9,192.2c51.8,43.2,127.3,45.7,182.1,5.5c55.1-40.5,75.3-113.5,48.5-176.8
		c-26.5-62.8-89.8-94.5-145-89.5c15.2,15.2,30.7,30.6,46,46c-12.6,12.5-24,23.9-35.4,35.3c-34.8-35.1-69.7-70.3-105.5-106.4
		c6.3-6.1,13.7-13,20.9-20.1c26.9-26.7,53.7-53.5,80.6-80.3c1.2-1.2,2.3-2.7,3.5-4c0.3,0,0.7,0,1,0C263.7,25,275.1,36.7,287.2,49
		c-14.9,14.8-29.4,29.4-44.4,44.3c1.5,0,2.7-0.1,4,0c12.1,0.9,24.3,1,36.2,2.9c78,12.2,142.6,73.2,159.4,150.4
		c2.2,10.2,3.4,20.6,5,30.9c0,8.5,0,17.1,0,25.6c-1.3,8.9-2.3,17.8-4,26.6c-14.2,74.6-75.5,137.1-149.8,152.7
		c-9.7,2-19.7,3.3-29.5,4.9c-9.2,0-18.4,0-27.6,0c-6.3-0.9-12.6-1.8-18.9-2.8c-78.4-12.7-142.6-73.3-159.5-151
		c-2.2-10-3.3-20.3-4.9-30.4C53.2,294.1,53.2,285.6,53.2,277.1z"/>
</g>
</svg>
