<svg xmlns="http://www.w3.org/2000/svg" viewBox="0 0 564.96 807.84"><defs><style>.cls-1{fill:#fff;}</style></defs><title>shield</title><g id="Layer_2" data-name="Layer 2"><g id="Layer_1-2" data-name="Layer 1"><path class="cls-1" d="M0,247.68V203.52c.12-1.1.32-2.2.36-3.31.84-24.29,1.21-48.61,3-72.87,1.06-14.51,2.31-29,3.51-43.51.22-2.6.63-5.19,1-8,1.74.68,3.28,1.32,4.84,1.89,10.46,3.82,21.37,5.36,32.4,6.17,17.61,1.29,35.17.4,52.69-1.5,12.8-1.39,25.48-3.49,38.1-6.08a246.9,246.9,0,0,0,70.7-25.66,617.31,617.31,0,0,0,74.78-49.4c.5-.38.93-.85,1.4-1.29h.48a16.36,16.36,0,0,0,1.64,1.65c22.35,17,45.5,32.87,70,46.63,12.42,7,25.13,13.38,38.62,18.05,27.9,9.66,56.73,14.72,86.06,17.16A265.2,265.2,0,0,0,519.1,84,133.34,133.34,0,0,0,547,79.66c3.59-1,7.09-2.36,10.81-3.62.13.76.31,1.53.39,2.3.7,7,1.53,14,2,21,1.15,15.55,2.34,31.1,3.14,46.67.67,13.1.81,26.22,1.21,39.33,0,1.1.24,2.2.36,3.3v73.44c-.13,1.58-.31,3.16-.37,4.75-.42,11.75-.56,23.51-1.26,35.24-1,16-2.22,32.06-3.62,48.07-1.11,12.58-2.38,25.15-4,37.67q-3.12,23.52-7,46.93a562.56,562.56,0,0,1-13.91,61.69,292,292,0,0,1-29.13,68.66c-7.88,13.37-16.08,26.52-24.87,39.31-27.34,39.8-58.44,76.47-92.33,110.81A997.64,997.64,0,0,1,285,806.08a22.72,22.72,0,0,0-1.85,1.77h-.48c-.72-.62-1.43-1.25-2.17-1.84-11.49-9.2-23.14-18.2-34.44-27.62A922.35,922.35,0,0,1,128,661c-23.87-28.6-45.78-58.6-64.81-90.67C53,553.15,43.95,535.46,37.4,516.55c-10.32-29.78-17-60.45-22-91.49-2.05-12.62-3.79-25.29-5.43-38-1.4-10.86-2.58-21.75-3.64-32.65q-1.53-15.76-2.59-31.56-1.36-20.47-2.32-41c-.49-10.39-.69-20.78-1-31.18C.34,249.72.13,248.7,0,247.68ZM282.86,774.4c.79-.6,1.44-1.07,2.06-1.57,11.36-9.36,22.83-18.58,34-28.11,16.58-14.09,32.65-28.77,48-44.2,15-15.08,29.28-30.87,43-47.13,23.58-27.89,45.35-57.11,64.42-88.3a361.47,361.47,0,0,0,21.4-39.39c7.83-17.31,13.5-35.37,18.28-53.73,4.51-17.33,8.28-34.84,11.09-52.52q3.8-23.91,7-47.92c1.48-11.25,2.55-22.56,3.56-33.87,1.2-13.38,2.3-26.77,3.15-40.18.77-12.21,1.24-24.44,1.69-36.67,1-27.19.65-54.38-.27-81.57q-1.11-32.61-3.75-65.15c-.17-2.12-.43-4.23-.65-6.37-4.65.23-9,.61-13.42.64-12.48.09-25,.15-37.43,0-6.39-.08-12.79-.48-19.16-1a419.22,419.22,0,0,1-45.55-6.5,251.72,251.72,0,0,1-77.49-28.53A642.55,642.55,0,0,1,285.34,35c-.82-.6-1.66-1.17-2.54-1.79l-3,2.21a591,591,0,0,1-57,36.88C205.46,82,187.46,90.22,168.18,95.4a383.74,383.74,0,0,1-52.66,10.3,335.88,335.88,0,0,1-38.74,2.75c-9.84.07-19.68.1-29.52,0-5.43-.06-10.86-.46-16.3-.7a9.78,9.78,0,0,0-1.21.1c-.14,1.06-.31,2-.38,3-1,13.88-2.19,27.75-2.82,41.65-.9,19.65-1.61,39.32-2,59-.59,33.37.58,66.7,3.15,100,1.07,13.79,2.11,27.59,3.62,41.34,1.74,15.89,3.82,31.74,6,47.58q4.32,31,11.62,61.46a393.87,393.87,0,0,0,16.62,54c6.49,16.34,15,31.64,24,46.64,18,29.86,38.56,57.89,60.8,84.71,15.84,19.1,32.34,37.62,50,55.07A953.34,953.34,0,0,0,281,773C281.53,773.44,282.12,773.85,282.86,774.4Z"/><path class="cls-1" d="M282.75,394.12c0-1.2.05-2.4.05-3.6q0-160.55,0-321.1V65.89c1.18.77,2,1.25,2.71,1.77q24,16.64,49.4,30.89a243.9,243.9,0,0,0,68.57,25.29,409.68,409.68,0,0,0,40.69,6.6,327.12,327.12,0,0,0,36.87,2c9.68,0,19.36,0,29,0H513c.19,1.92.43,3.71.55,5.51,2,28.49,3.44,57,3.46,85.58,0,15.91-.74,31.82-1.32,47.73-.32,8.63-.91,17.25-1.56,25.86-.83,11.08-1.72,22.16-2.78,33.23q-1.57,16.35-3.54,32.67c-1.17,9.6-2.61,19.17-3.95,28.75-.09.63-.27,1.25-.47,2.2H285.8c-1,0-2.08,0-3.12.06Z"/><path class="cls-1" d="M282.68,394.06c0,.88.11,1.75.11,2.63q0,170.52,0,341v3c-.87-.64-1.37-1-1.84-1.36-21.68-17.61-42.82-35.87-62.65-55.54-10.72-10.63-20.77-22-30.74-33.34a724.09,724.09,0,0,1-65.29-86.19c-6.92-10.77-13.43-21.78-19.62-33-11.06-20-18.8-41.28-24.9-63.22a610.33,610.33,0,0,1-13.51-61.8c-.56-3.31-1.13-6.62-1.67-9.93-.11-.69-.14-1.4-.23-2.38H280.6c.72,0,1.43.08,2.15.12Z"/></g></g></svg>