<?xml version="1.0" encoding="utf-8"?>
<!-- Generator: Adobe Illustrator 21.1.0, SVG Export Plug-In . SVG Version: 6.00 Build 0)  -->
<svg version="1.1" id="Layer_1" xmlns="http://www.w3.org/2000/svg" xmlns:xlink="http://www.w3.org/1999/xlink" x="0px" y="0px"
	 viewBox="0 0 500 500" style="enable-background:new 0 0 500 500;" xml:space="preserve">
<g>
	<polygon points="250,398.2 105.5,474.2 133.1,313.3 16.1,199.3 177.7,175.8 250,29.4 322.3,175.8 483.9,199.3 366.9,313.3 
		394.5,474.2 	"/>
	<path d="M250,46.3l63.8,129.3l3.5,7.1l7.8,1.1l142.7,20.7L364.5,305.2l-5.6,5.5l1.3,7.8l24.4,142.1L257,393.4l-7-3.7l-7,3.7
		l-127.6,67.1l24.4-142.1l1.3-7.8l-5.6-5.5L32.2,204.5l142.7-20.7l7.8-1.1l3.5-7.1L250,46.3 M250,12.4L172.7,169L0,194.1l125,121.8
		L95.5,488L250,406.7L404.5,488l-29.5-172l125-121.8L327.3,169L250,12.4L250,12.4z"/>
</g>
</svg>
