<svg id="Layer_1" data-name="Layer 1" xmlns="http://www.w3.org/2000/svg" viewBox="0 0 833.39 834.97"><defs><style>.cls-1{fill:#fff;}</style></defs><title>sword</title><path class="cls-1" d="M377.82,818.07a3.63,3.63,0,0,0,.54-.22,9.56,9.56,0,0,1,12.19,1.42Q408.33,837,426.1,854.82l1.1,1.1,1.22-1.22q285.49-285.49,571-571a7.35,7.35,0,0,1,3.32-2q36.08-10.27,72.15-20.61l1.46-.38L454.22,882.84l4.2,4.2L1080.51,265c-.11.64-.13.91-.21,1.17q-10.52,36.76-21.06,73.52a5.38,5.38,0,0,1-.89,1.51,7.25,7.25,0,0,1-.84.86L486.8,912.73l-1.4,1.4,1,1c11.43,11.43,22.77,22.94,34.32,34.24,4,3.94,5.85,8.56,2.51,14.14l-17.65,17.65a.73.73,0,0,0-.23,0c-5,2.82-9,2.27-13.08-1.82l-45.22-45.22-1-1-.95.95q-66.85,66.85-133.68,133.71a3.69,3.69,0,0,0-1,1.82,31.93,31.93,0,0,1-47.13,21.94c-1.73-1-3.32-2.19-5-3.3l-3.73-3.73c-.34-.48-.68-1-1-1.45a32,32,0,0,1,19.79-50.67,3.49,3.49,0,0,0,1.7-.94q66.87-66.82,133.71-133.68l.95-.95-1.12-1.12-47.25-47.25a9.55,9.55,0,0,1-1.41-12.18,3.6,3.6,0,0,0,.22-.54Z" transform="translate(-247.12 -260.75)"/></svg>